<?xml version="1.0" encoding="UTF-8" standalone="no"?>
<svg width="22px" height="22px" viewBox="0 0 22 22" version="1.1" xmlns="http://www.w3.org/2000/svg" xmlns:xlink="http://www.w3.org/1999/xlink">
    <!-- Generator: sketchtool 3.7.2 (28276) - http://www.bohemiancoding.com/sketch -->
    <title>C194EBCA-FAB5-4DBD-B78D-94EE16637CB6</title>
    <desc>Created with sketchtool.</desc>
    <defs></defs>
    <g id="Page-1" stroke="none" stroke-width="1" fill="none" fill-rule="evenodd">
        <g id="Tablet" transform="translate(-377.000000, -1591.000000)" fill="#FFFFFF">
            <g id="submit-btn" transform="translate(329.000000, 1574.000000)">
                <path d="M50.8788616,25.9365711 C51.5288832,25.5800289 51.8660352,25.3960588 52.2442805,25.1617779 C55.8436817,22.9322693 59.4300077,20.6918788 63.0387482,18.4694114 C63.7298631,18.0443773 64.4844859,17.6628708 65.248448,17.2992874 C66.0133441,16.9344238 66.7623632,17.0835698 67.3843666,17.4874802 C68.0614725,17.9272369 68.3375673,18.8424508 67.8668621,19.18171 C67.1495969,19.69828 65.7594219,20.4079824 64.9637058,20.8675825 C60.8263557,23.2571191 57.5866316,25.0696011 53.4399421,27.4520964 C53.3876415,27.4828218 58.1094424,30.6458487 61.5982499,32.6192479 C63.3689783,33.6208377 64.8190114,34.2686457 67.3843658,35.9404998 C67.9248756,36.2927527 69.7360296,36.7865545 68.8333347,38.2718787 C67.9306398,39.7572029 66.9522576,38.5567283 66.1201179,38.2718787 C65.8614168,38.1835433 64.1433923,37.0640349 63.3689783,36.6784549 C61.2711338,35.63394 61.4669287,35.5693521 59.133015,34.2686454 C56.5058445,32.80343 56.4086572,32.5759084 53.8758144,31.0313191 C53.7198466,30.9365826 52.7031475,30.2415123 51.3377285,29.5536179 C50.6714327,28.7418375 48.9121101,27.9149461 48.9121101,27.4520964" id="arrow-right" transform="translate(58.996745, 28.045770) rotate(-180.000000) translate(-58.996745, -28.045770) "></path>
            </g>
        </g>
    </g>
</svg>