<?xml version="1.0" encoding="UTF-8" standalone="no"?>
<svg width="13px" height="8px" viewBox="0 0 13 8" version="1.1" xmlns="http://www.w3.org/2000/svg" xmlns:xlink="http://www.w3.org/1999/xlink">
    <!-- Generator: sketchtool 3.7.2 (28276) - http://www.bohemiancoding.com/sketch -->
    <title>7A3BCADF-6444-430D-8BCA-71498CFCC82D</title>
    <desc>Created with sketchtool.</desc>
    <defs></defs>
    <g id="Page-1" stroke="none" stroke-width="1" fill="none" fill-rule="evenodd">
        <g id="Tablet" transform="translate(-484.000000, -1356.000000)" fill="#FFFFFF">
            <g id="Group-2" transform="translate(282.000000, 1345.000000)">
                <path d="M205.499455,13.9934778 C205.724438,13.8014936 205.841132,13.7024328 205.972049,13.5762815 C207.217862,12.3757769 208.45915,11.1694128 209.708195,9.97269954 C209.947401,9.74383503 210.208589,9.53840846 210.473009,9.34263279 C210.737752,9.14616778 210.997,9.22647716 211.212286,9.44396738 C211.446644,9.68075942 211.68695,10.4101089 211.524031,10.5927869 C211.275774,10.87094 210.935389,18.655715 211.524031,19.5501479 C211.686303,19.7965908 211.903722,20.5769849 211.65999,20.8578954 C211.413349,21.1415633 211.136322,21.1184701 210.848305,20.9650895 C210.758764,20.9175243 210.658232,20.8447977 210.614917,20.7548375 C210.111613,19.7111601 209.164162,19.1803599 208.356355,18.4799794 C207.447048,17.6910172 206.588491,16.8355327 205.711831,16.0038308 C205.657848,15.9528189 205.534689,15.8314931 205.499455,15.854931 C205.49105,15.9693633 204.785247,14.9210187 204.769231,14.8095302" id="arrow-down" transform="translate(208.269231, 15.153846) rotate(-90.000000) translate(-208.269231, -15.153846) "></path>
            </g>
        </g>
    </g>
</svg>