<?xml version="1.0" encoding="UTF-8" standalone="no"?>
<svg width="208px" height="165px" viewBox="0 0 208 165" version="1.1" xmlns="http://www.w3.org/2000/svg" xmlns:xlink="http://www.w3.org/1999/xlink">
    <!-- Generator: sketchtool 3.7.2 (28276) - http://www.bohemiancoding.com/sketch -->
    <title>691E4436-A3B8-4DAA-BD78-0A4433FC9E5E</title>
    <desc>Created with sketchtool.</desc>
    <defs></defs>
    <g id="Page-1" stroke="none" stroke-width="1" fill="none" fill-rule="evenodd">
        <g id="Tablet" transform="translate(-280.000000, -64.000000)" fill="#FFFFFF">
            <g id="logo-kokua-cards" transform="translate(280.000000, 64.000000)">
                <g id="cards" transform="translate(36.996047, 113.283582)">
                    <path d="M28.1170682,6.50678549 C26.2347093,5.55998487 24.3831929,5.41195716 22.5056532,5.94927852 C12.5309823,8.80313744 5.1827467,15.4970659 3.64640257,26.3598007 C3.1268985,30.0335793 3.3986984,33.7265823 4.16590664,37.3676795 C4.8097447,40.4282005 6.96101201,42.4736743 9.17203674,44.3788102 C13.2779501,47.9160957 18.2002271,49.1983618 23.495506,48.549539 C27.1281792,48.1044946 30.2182164,46.3810292 32.1882837,43.0926993 C32.525624,42.5284638 32.791641,42.0488156 32.4041815,41.3009873 C32.1969582,40.9030426 32.4456262,40.1023473 32.7559793,39.6774885 C32.9005537,39.4785162 33.7602895,39.5948237 34.1554596,39.8168653 C35.4556655,40.5473916 35.8045718,42.0324748 35.0421827,43.4089403 C32.5130943,47.9814586 28.5266957,50.5507967 23.4434592,51.2717109 C15.0629623,52.4607387 8.45591147,49.3165917 3.48737071,42.6005552 C1.6927203,40.1744387 1.04888223,37.3263471 0.732746178,34.3879009 C-0.0662684264,26.9538339 1.53657993,20.037864 5.72152735,13.8754896 C9.25685373,8.66952801 14.3381625,5.41099594 20.3726986,3.60774928 C22.800585,2.88202901 25.2226884,2.73207886 27.6631045,3.41646672 C29.3073975,3.87785179 30.6625417,4.79677706 31.0153033,6.55773009 C31.1666245,7.31420936 31.0008459,8.24563048 30.67218,8.95597125 C30.3155631,9.72783002 29.4500443,10.1055891 28.603802,9.68361395 C27.7729811,9.26932861 27.4096174,8.49939227 27.6968385,7.5449019 C27.7932215,7.22385479 27.9474342,6.92010961 28.1170682,6.50678549" id="Fill-7"></path>
                    <path d="M105.002803,32.7093244 C105.105932,32.6977897 105.210026,32.6862551 105.313156,32.6747205 C105.313156,30.7551663 105.294843,28.8356122 105.317975,26.916058 C105.341107,25.0272629 105.080873,24.7283238 103.175382,24.7427421 C102.641421,24.746587 102.10264,24.8436701 101.574461,24.9426756 C99.531143,25.3242795 97.8588989,26.46813 96.349542,27.7725041 C92.3332647,31.2425043 91.0667928,35.8179063 91.7029203,40.888336 C92.6359072,48.33586 100.520996,49.7661538 105.512668,46.4288017 C105.928079,46.1510095 106.319394,45.4233668 106.276021,44.9446798 C105.909766,40.8614219 105.441345,36.7868149 105.002803,32.7093244 M111.825751,48.383921 C112.067672,47.9254196 112.226704,47.4842201 112.500432,47.1314527 C113.056561,46.4172671 113.827625,46.3048045 114.562063,46.7642671 C115.33891,47.2506439 115.221322,47.9965498 114.838682,48.700162 C113.759193,50.6860402 110.839754,51.4982702 108.897637,50.3226995 C108.212355,49.9074529 107.604178,49.3672479 107.024917,48.9318158 C105.580137,49.4595249 104.183548,50.1352618 102.708889,50.4803394 C95.2141509,52.2355251 88.7140852,46.7844527 89.0070893,39.1110422 C89.2692509,32.2527454 92.1973648,27.0198697 98.3533434,23.7824844 C100.480515,22.6645868 102.793706,22.0590189 105.413394,22.2762544 C105.413394,21.7206699 105.408575,21.2727419 105.414358,20.8248139 C105.486645,14.5605503 105.552185,8.29724793 105.646641,2.03298436 C105.658207,1.22844414 105.497247,0.0893997389 106.718419,0.110546555 C107.834534,0.129770933 107.723693,1.23709511 107.731404,1.99934169 C107.815257,9.87749181 107.8461,17.7566031 107.929953,25.6347532 C107.981036,30.4735292 108.011878,35.3151888 108.223921,40.1472362 C108.314521,42.2023222 108.771376,44.2535634 109.202208,46.2769291 C109.557861,47.9504113 109.969416,48.1926384 111.825751,48.383921" id="Fill-10"></path>
                    <path d="M56.4177028,40.548449 C56.0630136,37.04 55.6745903,33.5344347 55.3758032,30.0211796 C55.2938777,29.0666892 54.8437694,28.5755064 54.0312611,28.23139 C52.1652874,27.4393456 50.0785966,27.9324509 48.3658717,29.6463042 C45.6864259,32.3252213 44.2541753,35.6519999 43.5698564,39.2988644 C43.1216757,41.690377 43.713467,43.9405905 44.9828304,46.0245131 C46.5076085,48.5294495 49.2439203,49.0677321 51.6534939,47.8806268 C54.5305248,46.4618677 56.7511878,44.2279949 56.4177028,40.548449 M58.4292149,43.8540808 C57.0538303,47.2740976 54.4322142,49.2407515 51.2978409,50.5345521 C48.6087567,51.6437988 45.3028218,50.569156 43.4387756,48.1353498 C41.0301659,44.9892803 40.4084959,41.4193133 41.4455763,37.6513352 C42.4016951,34.1784513 43.8214159,30.8728195 46.5548362,28.3669219 C49.7287265,25.456351 53.4038082,25.0334147 57.0181686,27.3191933 C57.4412897,27.5873733 57.6947768,28.3313568 57.7699555,28.8898249 C57.908747,29.9116006 57.8615193,30.9602904 57.8788683,31.9974456 C57.9338065,35.1137173 58.603668,38.106953 59.8768867,40.9367814 C60.3568738,42.0027732 61.0720352,42.9976347 61.8334604,43.8954132 C62.8310239,45.0729064 64.2305043,45.1959424 65.6588995,44.8816238 C66.0010589,44.8066487 66.4424928,44.5759562 66.5803204,44.2923966 C66.9205522,43.5878231 67.4660797,43.1985295 68.1320858,43.4647871 C68.5638814,43.6378065 68.9725451,44.2145379 69.1132642,44.6913024 C69.3320535,45.4343247 69.2751875,46.2100283 68.4549687,46.7117846 C65.5798655,48.4698539 61.8855072,47.9334938 59.6301464,45.3901086 C59.2263018,44.9344908 58.8783594,44.4308121 58.4292149,43.8540808" id="Fill-16"></path>
                    <path d="M131.434379,26.8650173 C128.261453,24.6590199 122.94497,26.929419 122.530523,30.7396907 C122.45438,31.434652 122.789793,32.3910648 123.281346,32.8832089 C124.247103,33.8492339 125.436469,34.6028295 126.568968,35.3929514 C128.395425,36.6675277 130.372239,37.7585111 132.064724,39.1868824 C134.09744,40.9016969 134.409721,43.5142899 132.972651,45.7558524 C132.155324,47.0304286 131.153905,48.2434869 130.028152,49.253728 C127.573279,51.4568417 124.748294,51.4289663 121.969574,49.9650299 C120.596117,49.2412321 119.355669,48.2165728 118.17305,47.1928746 C116.98754,46.1672541 116.508517,44.7033177 116.3784,43.1807469 C116.338883,42.7164782 116.55478,42.0715003 116.889229,41.7696776 C117.477165,41.2390848 118.264614,41.0189656 118.979775,41.6620211 C119.544579,42.1714671 119.450124,42.8654671 118.739782,43.7949658 C119.573494,45.9365615 124.337703,48.7442819 126.862936,47.9387805 C128.524578,47.4091489 131.06716,44.9032512 131.123062,43.1711348 C131.146194,42.4588716 130.816565,41.5178382 130.306699,41.0506859 C129.211789,40.0481345 127.902908,39.2743533 126.667279,38.4275195 C125.11455,37.3624889 123.447125,36.4377964 122.009091,35.2372339 C119.479039,33.1244748 119.203384,30.3792336 121.039479,27.6330312 C123.696757,23.6574298 128.68361,22.4386043 132.457002,24.9041308 C133.034336,25.2809286 133.539383,25.9037984 133.843953,26.5266683 C134.304663,27.4686628 133.652151,28.4875548 132.60736,28.6971005 C131.522088,28.914336 131.055594,28.1866933 131.434379,26.8650173" id="Fill-18"></path>
                    <path d="M75.3355543,29.3009383 C77.0347856,26.8902013 79.2188231,25.0196693 81.5850244,23.3471484 C82.8370388,22.4618658 84.1960383,21.8659101 85.7815377,21.9601095 C87.6600413,22.0716109 89.8787767,24.8312704 89.5597491,26.6662373 C89.4334875,27.3881126 88.9361515,27.4717387 88.4648389,27.1276223 C87.8210008,26.6575863 87.2157159,26.1000793 86.7087417,25.4858604 C85.9964717,24.6246083 85.1907103,24.4583174 84.2606149,24.974492 C81.5368329,26.4884118 79.0260572,28.3522152 77.3557408,30.9696143 C76.5923879,32.1653706 76.4362475,33.8782627 76.388056,35.3691132 C76.2598667,39.3206841 76.3514305,43.2789835 76.3282986,47.2353605 C76.3254071,47.8447733 76.3302263,48.5358897 76.0555349,49.0405296 C75.7904818,49.5288288 75.1543544,50.1363192 74.7081013,50.1161336 C74.257993,50.095948 73.7057187,49.4346294 73.4503039,48.928067 C73.2565742,48.5406958 73.4454848,47.9553135 73.4821103,47.4593245 C73.8483655,42.5840223 74.1066718,37.6923793 73.2430806,32.8603318 C72.8768254,30.8129356 71.9621513,28.8558939 71.2036175,26.8930849 C71.0725367,26.5518522 70.4788177,26.3855613 70.0961775,26.142373 C69.674984,25.8732317 68.934763,25.6473452 68.895246,25.3330266 C68.8200673,24.7303424 68.9877736,23.9613673 69.3501735,23.4865251 C69.6036606,23.1539434 70.5183348,22.9242121 70.8431453,23.1241456 C71.7019173,23.6518548 72.5693638,24.3266304 73.1264572,25.1494338 C73.9804101,26.4086306 74.5770205,27.8408467 75.3355543,29.3009383" id="Fill-21"></path>
                </g>
                <g id="kokua">
                    <path d="M51.6063196,97.79047 C53.5812061,97.8567941 55.3498332,96.8869242 56.8196731,95.3979961 C57.4625473,94.7472509 58.108313,93.9052232 58.3068619,93.0468547 C58.8861234,90.5467243 57.5531473,87.5871313 55.6100671,86.5797739 C53.1735063,85.3148099 49.5533629,85.7406298 47.7288338,87.5342643 C46.0074344,89.2250484 45.6951537,91.3051261 46.060445,93.5880209 C46.5606725,96.7110212 48.2483379,98.0682622 51.6063196,97.79047 M54.8688823,19.4059523 C54.9749035,19.3751933 55.0809247,19.3444343 55.1859822,19.3136753 C54.740693,17.8333981 54.4669654,16.2714174 53.8105975,14.8901459 C52.6809894,12.5159352 49.94275,12.2006554 47.9100337,12.9648244 C44.0662819,14.4095364 42.2831975,19.5261046 44.3544669,23.0912655 C45.1380603,24.4408169 46.3120045,25.5952408 47.9861763,25.8691882 C52.4834044,26.6054818 54.7108142,24.753213 54.8679184,20.2104925 C54.8765929,19.9423124 54.8688823,19.6741323 54.8688823,19.4059523 M42.6465612,24.9329609 C40.09916,21.0063817 41.3637042,15.017988 45.1843241,12.1833534 C47.3606509,10.5675445 49.5736033,9.66399871 52.2694343,10.5627384 C55.2023673,11.5393368 56.6895561,13.7857054 57.1068942,16.6328357 C57.3864048,18.539894 57.3517069,20.5709496 57.0240049,22.4722406 C56.1594499,27.4773074 50.8381476,29.9322605 46.3023662,27.5715068 C45.7558749,27.286986 45.2093836,27.0024652 44.953005,27.0457201 C43.1718482,28.6221191 41.2384064,30.0591413 39.6374857,31.7999088 C33.5248794,38.4467375 27.0267413,44.6514055 19.755612,50.0419211 C17.8260255,51.4722148 16.1007708,53.1764559 14.2704587,54.7643895 C17.4086873,58.7678663 20.6548649,62.2849662 24.2981401,65.4569886 C29.7813658,70.2332853 35.1836298,75.101859 40.6157725,79.9358289 C42.4547591,81.5727847 44.2571202,83.2520341 46.1375514,84.8390065 C46.4382662,85.0927683 47.1823425,85.1677434 47.5196828,84.9754996 C49.9070883,83.6105688 52.38413,83.5490507 55.0192397,84.0517682 C59.4046636,84.8870675 62.239286,90.8745 60.1140421,94.4733036 C58.7396213,96.8013757 57.2659261,98.9362429 54.5276867,99.6379327 C52.214496,100.230044 49.8270905,100.126232 47.603536,99.2082679 C45.6787686,98.4123786 44.7120476,96.7350516 44.297601,94.7559019 C43.8629139,92.6844752 43.9313458,90.6188158 44.6330136,88.6117907 C44.8961391,87.8572339 44.7033732,87.4179568 44.1472436,86.8287296 C39.1825582,81.5718235 33.2675369,77.4107068 27.8662367,72.6613243 C26.8002414,71.7231746 25.864363,70.6408421 24.8417399,69.6517479 C22.6866173,67.5687865 20.4948692,65.5242739 18.3570955,63.4230494 C17.0964066,62.1840382 15.8983666,60.8796642 14.7032181,59.5762514 C14.426599,59.2744286 14.274314,58.8582208 14.0641992,58.4948801 C13.9032396,58.6015754 13.743244,58.7082707 13.5822844,58.8140048 C13.5822844,59.2177167 13.5813206,59.6204674 13.5822844,60.0241794 C13.6150546,71.7106788 13.6497525,83.3981394 13.6757759,95.0856 C13.6767397,95.7373064 13.6516802,96.3957414 13.5543334,97.0378356 C13.4222888,97.9086999 12.8507379,98.3691238 11.9755808,98.4421764 C11.0406662,98.5209963 10.4556217,98.023085 10.340926,97.1676001 C10.1626176,95.8391956 10.0373198,94.4896443 10.0469581,93.1506663 C10.194424,72.0836317 10.3891175,51.0175583 10.5192345,29.9505236 C10.550077,24.9964014 10.4585132,20.0384343 10.2696027,15.088157 C10.2002069,13.2608798 9.75780923,11.4355251 9.35782002,9.63708458 C8.91253082,7.6396717 7.74726103,6.98700407 5.86008299,7.77520357 C4.79890677,8.2192867 3.79941565,8.94212331 2.95510106,9.73320647 C1.8563355,10.7617107 1.13828257,11.1683063 0.511793432,10.6098381 C-0.567695539,9.64765799 0.313244567,8.87099311 0.855880541,8.1279709 C2.3999353,6.0123281 4.53096219,4.88577955 7.12559104,4.68872968 C9.55154973,4.50513687 11.3818618,5.83450261 12.1240105,8.56820916 C12.6435146,10.4829572 13.0492868,12.4899823 13.0859123,14.4633647 C13.3085569,26.685263 13.4126505,38.9090838 13.5572249,51.1319433 C13.5591525,51.3491788 13.5813206,51.5664143 13.6083078,52.0354891 C23.4875596,43.0019538 33.6096963,34.5509173 42.6465612,24.9329609" id="Fill-1"></path>
                    <path d="M109.262211,80.1433561 C109.933036,79.6079571 110.362904,79.2994059 110.753255,78.9475997 C114.467854,75.5996743 118.168959,72.2354082 121.893196,68.8980561 C122.60643,68.2598068 123.385204,67.6869203 124.173616,67.140948 C124.962993,66.5930532 125.735984,66.8170172 126.377894,67.4235463 C127.076671,68.0839037 126.644875,68.7240755 126.159105,69.2335215 C125.418884,70.0092252 124.633363,70.7464801 123.81218,71.4366353 C119.542416,75.0248654 115.254339,78.59291 110.974936,82.1705667 C110.920962,82.2167052 110.89783,82.2993701 110.847711,82.386841 C113.82498,85.7376501 117.253321,88.5655561 121.004545,91.0176255 C123.538453,92.6738057 125.839114,94.5808639 127.594247,97.075227 C128.078089,97.7624985 128.439525,98.4709168 127.712798,99.2543102 C126.977396,100.045393 126.151394,99.9809917 125.292622,99.5532493 C125.025642,99.4206011 124.725891,99.2177839 124.596737,98.9669058 C123.096055,96.056335 120.271071,94.5760579 117.862461,92.622861 C115.151209,90.422631 112.591278,88.0368857 109.977373,85.7174645 C109.816413,85.5752041 109.761475,85.3127913 109.657381,85.1070905 C109.553288,85.1714921 109.449194,85.236855 109.344137,85.3022179 C109.319077,85.6213426 109.271849,85.9414285 109.271849,86.2615144 C109.271849,89.873775 109.278596,93.4869968 109.282452,97.0992575 C109.282452,97.4452963 109.397147,97.8797672 109.232332,98.1171883 C108.897884,98.598759 108.469943,99.2062493 107.968752,99.3360139 C107.239133,99.5263352 106.802518,98.9101939 106.671438,98.1844736 C106.630957,97.9595484 106.632884,97.725011 106.633848,97.4952797 C106.732159,68.4395547 106.827578,39.3828686 106.940346,10.3271436 C106.950948,7.36851185 107.058897,4.41084129 107.13022,1.45317073 C107.145642,0.807231633 107.061788,-0.0386409998 107.997667,0.00173019402 C108.888245,0.0392177312 108.811139,0.873555737 108.815958,1.52430093 C108.936437,17.8957813 109.06559,34.2682228 109.165828,50.6397031 C109.222694,60.0173547 109.231369,69.3959675 109.262211,78.7736191 C109.263175,79.1138906 109.262211,79.4541621 109.262211,80.1433561" id="Fill-3"></path>
                    <path d="M188.418149,88.1319502 C187.977679,83.6286397 187.571907,79.1214842 187.048548,74.6277859 C186.989754,74.1193011 186.356518,73.5271902 185.839906,73.249398 C183.501656,71.9882788 180.730646,72.6563259 178.513838,74.8507887 C176.011737,77.328811 174.56021,80.3970217 173.428674,83.6555538 C172.142926,87.3620139 172.232562,90.9617787 174.203593,94.4433135 C176.077277,97.7527902 179.091172,98.6947847 182.520477,97.1376101 C186.102067,95.5112277 188.883679,92.706391 188.418149,88.1319502 M190.891336,92.1373494 C189.571853,95.82843 186.79988,97.9767542 183.653941,99.7002197 C179.594291,101.925441 174.973693,100.841187 172.272079,97.0722472 C169.967563,93.8550476 169.058671,90.2158728 169.769014,86.3508116 C170.695254,81.307296 172.685562,76.6847943 176.511001,73.1061764 C179.159604,70.628154 182.35759,69.5506276 185.987372,70.5166526 C187.121799,70.8184754 188.235986,71.3452233 189.224875,71.9767442 C189.684621,72.2699159 189.999794,73.038891 190.073045,73.6300407 C190.232076,74.9209576 190.223402,76.2368663 190.231113,77.5431628 C190.255208,81.3668916 191.108197,85.0224071 192.617554,88.5077868 C193.158263,89.7564102 193.936073,90.9550501 194.821832,91.9922053 C196.288781,93.7099035 198.315714,94.1453357 200.385056,93.2225655 C201.63707,92.6640973 202.779208,91.8518674 203.939659,91.1069227 C204.524703,90.7310861 204.918909,90.2850806 204.810961,89.4170999 C204.702048,88.5529641 205.397933,88.2299945 206.212369,88.3712937 C207.276436,88.5558478 207.991598,89.6276068 207.709196,90.7195515 C207.5492,91.3385765 207.295713,91.9922053 206.899579,92.4814657 C204.334829,95.6534881 201.08576,97.3759924 196.906595,96.7819591 C194.723522,96.4714854 193.147661,95.1065546 191.834925,93.4205766 C191.536138,93.0380115 191.259519,92.6391056 190.891336,92.1373494" id="Fill-5"></path>
                    <path d="M70.6098555,86.9719513 C70.7525023,88.0331369 70.7929831,89.1193143 71.0551447,90.1507022 C72.3611336,95.3066803 79.1378184,98.7401543 85.0383822,97.1695226 C90.3461909,95.7565308 94.9176339,88.9222644 94.4106597,83.5009898 C94.1427151,80.6375187 92.758656,78.1691086 91.0218354,75.9179339 C89.6637997,74.1579421 87.8325237,73.2226761 85.6137884,72.9420002 C82.3512257,72.5296373 79.5368438,73.5744822 76.9836596,75.474812 C73.1360525,78.3382831 70.3505854,81.7986711 70.6098555,86.9719513 M68.1810053,86.0001589 C68.5029244,78.3065629 73.4589353,72.0288422 80.9883709,70.196759 C86.4368987,68.8712381 91.1394226,70.5197285 94.1272938,75.0701388 C96.8674609,79.2456737 98.5551262,83.7336048 96.7469822,88.6896494 C94.8299255,93.9407883 91.311948,98.014434 85.8865521,99.7503953 C76.8207724,102.651354 67.7839076,95.4989241 68.1810053,86.0001589" id="Fill-12"></path>
                    <path d="M164.662356,96.7883993 C165.168367,97.9812719 164.211284,99.3654272 162.76554,99.5788177 C161.725568,99.7326128 160.685596,99.579779 160.106334,98.6118315 C159.484664,97.5746763 158.928535,96.4683134 158.543967,95.3254241 C158.060125,93.8884019 157.77965,92.3840943 157.387372,90.8115402 C156.558478,92.1976178 155.891508,93.498147 155.052013,94.6766014 C153.423141,96.9652636 151.341269,98.7156432 148.760134,99.9392748 C145.513957,101.478186 141.25865,99.4999978 139.764714,97.1757705 C138.236081,94.7977149 137.3802,92.1956954 136.883828,89.4523766 C135.874698,83.8782682 136.243845,78.2734008 136.559017,72.6723783 C136.582149,72.262899 136.666002,71.7697937 136.915634,71.4843117 C137.209602,71.1498075 137.714649,70.9998574 138.128132,70.7691648 C138.30644,71.15173 138.631251,71.5323727 138.638961,71.9187827 C138.716068,75.8367109 138.591734,79.7642513 138.831727,83.6706449 C138.995578,86.3361049 139.556527,88.9909916 140.120367,91.6112743 C140.381565,92.8243325 140.973356,94.0027869 141.593099,95.096654 C143.080287,97.7198204 145.239265,98.2898232 147.956301,96.9239311 C153.383624,94.1959919 156.072708,89.634047 156.49101,83.7533098 C156.691487,80.9330935 156.382097,78.0763509 156.296317,75.2369103 C156.275112,74.5083064 156.093912,73.7518271 156.240415,73.0626331 C156.339689,72.5983644 156.874614,71.9110929 157.23605,71.8976358 C157.707363,71.8803339 158.34831,72.3321068 158.641314,72.7656165 C158.936245,73.2029711 158.971907,73.8642897 158.99022,74.4314089 C159.077928,77.2718107 159.248526,80.1170187 159.155035,82.9526144 C159.014316,87.2136978 159.940556,91.2748477 161.154017,95.2946651 C161.777615,97.3584021 162.661446,97.6977124 164.662356,96.7883993" id="Fill-14"></path>
                    <path d="M50.1969118,17.0132862 C51.3371221,16.9806047 52.4137195,18.619483 51.7621708,19.7191174 C51.2821838,20.5284637 50.3848586,21.2272698 49.5135568,21.6300206 C48.6403273,22.0346937 48.0099828,21.2945552 47.7295085,20.4698293 C47.2206065,18.9712891 48.6104486,17.0584635 50.1969118,17.0132862" id="Fill-27"></path>
                    <path d="M51.8282895,94.1425481 C50.4056773,94.0887199 49.9613519,93.6254124 50.0133987,92.2547142 C50.07412,90.6658194 51.2846897,89.4469938 52.7844083,89.4633345 C53.8918484,89.4758304 54.5202652,90.2736421 54.4653269,91.5972405 C54.3988227,93.1870965 53.3492124,94.2002213 51.8282895,94.1425481" id="Fill-29"></path>
                </g>
            </g>
        </g>
    </g>
</svg>