<?xml version="1.0" encoding="UTF-8" standalone="no"?>
<svg width="106px" height="5px" viewBox="0 0 106 5" version="1.1" xmlns="http://www.w3.org/2000/svg" xmlns:xlink="http://www.w3.org/1999/xlink">
    <!-- Generator: sketchtool 3.7.2 (28276) - http://www.bohemiancoding.com/sketch -->
    <title>BD3C3235-0D31-46DC-B76C-1C396638528F</title>
    <desc>Created with sketchtool.</desc>
    <defs></defs>
    <g id="Page-1" stroke="none" stroke-width="1" fill="none" fill-rule="evenodd">
        <g id="Tablet" transform="translate(-331.000000, -751.000000)" fill="#1D4C76">
            <path d="M385.492569,787.908192 C385.460281,788.319372 385.39943,788.73179 385.39943,789.144208 C385.39943,793.798467 385.408123,798.453965 385.41309,803.108223 C385.41309,803.554081 385.560871,804.11388 385.348514,804.419788 C384.917589,805.040273 384.366205,805.823001 383.720439,805.990198 C382.780353,806.23542 382.217792,805.441545 382.048899,804.506483 C381.996741,804.216675 381.999225,803.914483 382.000467,803.618483 C382.127136,766.181299 382.25008,751.742876 382.395377,714.305692 C382.409038,710.493609 382.548126,706.682764 382.640023,702.871919 C382.659893,702.039652 382.551851,700.949777 383.757695,701.001794 C384.905171,701.050095 384.805822,702.125108 384.812031,702.963568 C384.967263,724.057591 385.257858,725.674532 385.387011,746.768555 C385.460281,758.851298 385.347272,767.4136 385.387011,779.496343 C385.388253,779.93477 385.627931,787.823974 385.492569,787.908192 Z" id="rule" transform="translate(383.766992, 753.517601) rotate(-90.000000) translate(-383.766992, -753.517601) "></path>
        </g>
    </g>
</svg>